# xmcd
#
# Track frame offsets:
#	150
#	13315
#	42719
#	55244
#	85391
#	104825
#	130100
#	142035
#
# Disc length: 2103 seconds
#
# Revision: 1
# Processed by: cddbd v1.5.1PL2 Copyright (c) Steve Scherf et al.
# Submitted via: audiograbber 1.83.01
#
DISCID=7a083508
DTITLE=Project R&B Review - Pontiac Blues
DYEAR=1900
DGENRE=Blues
TTITLE0=Pontiac Blues
TTITLE1=One Brick At A Time
TTITLE2=Eye To Eye
TTITLE3=Color Blue
TTITLE4=Can't Be Satisfied
TTITLE5=Abused
TTITLE6=Buffalo Blues
TTITLE7=No Tears On My Soul
EXTD=
EXTT0=
EXTT1=
EXTT2=
EXTT3=
EXTT4=
EXTT5=
EXTT6=
EXTT7=
PLAYORDER=
